arm28_optimize_states
version=1
nRows=19
nColumns=21
inDegrees=yes

# SIMM Motion File Header:
name arm28_optimize_states
datacolumns 21
datarows 19
otherdata 1
range 0.63837915 0.72324570
endheader
time	r_shoulder_elev	r_elbow_flex	r_shoulder_elev_u	r_elbow_flex_u	TRIlong.activation	TRIlong.fiber_length	TRIlat.activation	TRIlat.fiber_length	TRImed.activation	TRImed.fiber_length	BIClong.activation	BIClong.fiber_length	BICshort.activation	BICshort.fiber_length	BRA.activation	BRA.fiber_length	DeltAnt.activation	DeltAnt.fiber_length	DeltPost.activation	DeltPost.fiber_length
      0.63837915	      8.97877308	    -20.97287167	     -3.29666330	    -19.24491993	      0.01000965	      0.13895689	      0.01000965	      0.06702027	      0.01000965	      0.06207856	      0.01000965	      0.14408775	      0.01000965	      0.14865832	      0.01000965	      0.08474825	      0.01000965	      0.15678930	      0.01000965	      0.11627957
      0.64278766	      8.96432357	    -21.05521890	     -3.25810679	    -18.11256709	      0.01000912	      0.13895349	      0.01000912	      0.06702602	      0.01000912	      0.06208426	      0.01000912	      0.14408732	      0.01000912	      0.14865332	      0.01000912	      0.08473390	      0.01000912	      0.15679836	      0.01000912	      0.11626831
      0.64719617	      8.95004660	    -21.13255535	     -3.21876332	    -16.97104494	      0.01000862	      0.13895003	      0.01000862	      0.06703163	      0.01000862	      0.06208982	      0.01000862	      0.14408705	      0.01000862	      0.14864852	      0.01000862	      0.08472035	      0.01000862	      0.15680732	      0.01000862	      0.11625725
      0.65160468	      8.93594755	    -21.20484619	     -3.17715184	    -15.82413774	      0.01000814	      0.13894650	      0.01000814	      0.06703706	      0.01000814	      0.06209519	      0.01000814	      0.14408693	      0.01000814	      0.14864394	      0.01000814	      0.08470762	      0.01000814	      0.15681617	      0.01000814	      0.11624628
      0.65722937	      8.91823087	    -21.28971489	     -3.12240375	    -14.35085803	      0.01000757	      0.13894184	      0.01000757	      0.06704368	      0.01000757	      0.06210173	      0.01000757	      0.14408699	      0.01000757	      0.14863845	      0.01000757	      0.08469258	      0.01000757	      0.15682730	      0.01000757	      0.11623253
      0.66171321	      8.90433333	    -21.35142023	     -3.07603542	    -13.17221550	      0.01000715	      0.13893796	      0.01000715	      0.06704867	      0.01000715	      0.06210666	      0.01000715	      0.14408722	      0.01000715	      0.14863437	      0.01000715	      0.08468157	      0.01000715	      0.15683603	      0.01000715	      0.11622169
      0.66619706	      8.89064627	    -21.40782823	     -3.02891389	    -11.98732175	      0.01000675	      0.13893392	      0.01000675	      0.06705338	      0.01000675	      0.06211130	      0.01000675	      0.14408763	      0.01000675	      0.14863055	      0.01000675	      0.08467144	      0.01000675	      0.15684463	      0.01000675	      0.11621106
      0.67068090	      8.87717488	    -21.45891633	     -2.97957710	    -10.79996020	      0.01000637	      0.13892969	      0.01000637	      0.06705778	      0.01000637	      0.06211563	      0.01000637	      0.14408824	      0.01000637	      0.14862702	      0.01000637	      0.08466219	      0.01000637	      0.15685310	      0.01000637	      0.11620056
      0.67627532	      8.86068183	    -21.51517963	     -2.91671907	     -9.31253796	      0.01000593	      0.13892413	      0.01000593	      0.06706278	      0.01000593	      0.06212055	      0.01000593	      0.14408930	      0.01000593	      0.14862303	      0.01000593	      0.08465192	      0.01000593	      0.15686347	      0.01000593	      0.11618774
      0.68072540	      8.84781786	    -21.55398622	     -2.86430728	     -8.12839019	      0.01000560	      0.13891944	      0.01000560	      0.06706637	      0.01000560	      0.06212405	      0.01000560	      0.14409039	      0.01000560	      0.14862019	      0.01000560	      0.08464475	      0.01000560	      0.15687156	      0.01000560	      0.11617768
      0.68517548	      8.83518874	    -21.58751647	     -2.81153886	     -6.94055030	      0.01000528	      0.13891452	      0.01000528	      0.06706957	      0.01000528	      0.06212719	      0.01000528	      0.14409170	      0.01000528	      0.14861766	      0.01000528	      0.08463847	      0.01000528	      0.15687951	      0.01000528	      0.11616786
      0.68962556	      8.82279786	    -21.61575926	     -2.75702093	     -5.75261705	      0.01000499	      0.13890935	      0.01000499	      0.06707238	      0.01000499	      0.06212992	      0.01000499	      0.14409324	      0.01000499	      0.14861544	      0.01000499	      0.08463310	      0.01000499	      0.15688731	      0.01000499	      0.11615818
      0.69543809	      8.80698246	    -21.64468251	     -2.68495996	     -4.19841729	      0.01000463	      0.13890220	      0.01000463	      0.06707544	      0.01000463	      0.06213288	      0.01000463	      0.14409560	      0.01000463	      0.14861303	      0.01000463	      0.08462744	      0.01000463	      0.15689727	      0.01000463	      0.11614587
      0.69986831	      8.79521269	    -21.66066098	     -2.62810774	     -3.01542163	      0.01000437	      0.13889644	      0.01000437	      0.06707729	      0.01000437	      0.06213465	      0.01000437	      0.14409767	      0.01000437	      0.14861155	      0.01000437	      0.08462417	      0.01000437	      0.15690468	      0.01000437	      0.11613664
      0.70429852	      8.78369545	    -21.67139684	     -2.57129500	     -1.83109176	      0.01000413	      0.13889040	      0.01000413	      0.06707871	      0.01000413	      0.06213600	      0.01000413	      0.14409997	      0.01000413	      0.14861041	      0.01000413	      0.08462180	      0.01000413	      0.15691194	      0.01000413	      0.11612767
      0.70962795	      8.77017738	    -21.67736420	     -2.50123045	     -0.40922972	      0.01000386	      0.13888278	      0.01000386	      0.06707984	      0.01000386	      0.06213705	      0.01000386	      0.14410306	      0.01000386	      0.14860946	      0.01000386	      0.08462015	      0.01000386	      0.15692046	      0.01000386	      0.11611708
      0.71495738	      8.75703463	    -21.67575833	     -2.43139523	      1.01269514	      0.01000360	      0.13887474	      0.01000360	      0.06708034	      0.01000360	      0.06213746	      0.01000360	      0.14410649	      0.01000360	      0.14860898	      0.01000360	      0.08461978	      0.01000360	      0.15692876	      0.01000360	      0.11610686
      0.71910154	      8.74707472	    -21.66928011	     -2.37505329	      2.11289752	      0.01000341	      0.13886822	      0.01000341	      0.06708023	      0.01000341	      0.06213727	      0.01000341	      0.14410939	      0.01000341	      0.14860893	      0.01000341	      0.08462019	      0.01000341	      0.15693504	      0.01000341	      0.11609902
      0.72324570	      8.73734880	    -21.65824769	     -2.31861876	      3.21075521	      0.01000324	      0.13886145	      0.01000324	      0.06707959	      0.01000324	      0.06213657	      0.01000324	      0.14411251	      0.01000324	      0.14860909	      0.01000324	      0.08462125	      0.01000324	      0.15694118	      0.01000324	      0.11609143
